<?xml version="1.0" standalone="no"?>
<!DOCTYPE svg PUBLIC "-//W3C//DTD SVG 20010904//EN"
 "http://www.w3.org/TR/2001/REC-SVG-20010904/DTD/svg10.dtd">
<svg version="1.0" xmlns="http://www.w3.org/2000/svg"
 width="260.000000pt" height="260.000000pt" viewBox="0 0 260.000000 260.000000"
 preserveAspectRatio="xMidYMid meet">
<metadata>
Created by potrace 1.14, written by Peter Selinger 2001-2017
</metadata>
<g transform="translate(0.000000,260.000000) scale(0.100000,-0.100000)"
fill="#000000" stroke="none">
<path d="M101 2577 c-25 -12 -55 -39 -70 -61 l-26 -40 0 -1175 0 -1176 23 -37
c13 -20 40 -47 60 -60 l37 -23 1176 0 1175 0 41 27 c23 15 49 44 62 70 l21 43
-3 1165 -2 1165 -23 37 c-12 20 -39 47 -60 60 l-37 23 -1165 2 -1165 3 -44
-23z"/>
</g>
</svg>
